<svg xmlns="http://www.w3.org/2000/svg" version="1.1" xmlns:xlink="http://www.w3.org/1999/xlink" xmlns:svgjs="http://svgjs.dev/svgjs" width="100%" height="100%" viewBox="0 0 1000 600"><rect width="100" height="100" x="0" y="0" fill="#0000"/><g><rect width="333.3333333333333" height="333.3333333333333" y="265.75022477270295" fill="#3d155f" transform="matrix(0.5132881278067329,0,0,0.5132881278067328,0,78.04557287743872)" x="243.5279388427734"/><path d="M441.1618683945482 439.91689667510576L387.79877477204064 439.91689667510576L387.79877477204064 507.416894631518L366.37020399222723 507.416894631518L366.37020399222723 357.4168991728242L454.01901086243623 357.4168991728242L454.01901086243623 376.7026128746562L387.79877477204064 376.7026128746562L387.79877477204064 420.6311829732737L441.1618683945482 420.6311829732737L441.1618683945482 439.91689667510576Z" fill="#3d155f" transform="matrix(0.5132881278067329,0,0,0.5132881278067328,0,78.04557287743872)"/><path d="M804.0721514777304 506.3964847764801L784.6843971024161 506.3964847764801L784.6843971024161 390.06995852459517L784.2875717204653 390.06995852459517L742.2240812336726 506.3964847764801L721.8159187333418 506.3964847764801L679.979185607664 390.06995852459517L679.5823602257132 390.06995852459517L679.5823602257132 506.3964847764801L660.194605850399 506.3964847764801L660.194605850399 363.53934727416527L688.9644460418374 363.53934727416527L731.8215872925318 482.72868521012435L732.2467573446221 482.72868521012435L775.3023112862919 363.53934727416527L804.0721514777304 363.53934727416527L804.0721514777304 506.3964847764801ZM862.4338272946483 507.4168929014966L838.7660277282926 493.7547618943308L838.7660277282926 404.35567227482665L858.5506074855575 404.35567227482665L858.5506074855575 489.67312939426466L905.7161385974329 489.67312939426466L905.7161385974329 404.35567227482665L925.5007183546978 404.35567227482665L925.5007183546978 507.4168929014966L910.5914218614008 507.4168929014966L905.7161385974329 499.0552152103889L891.2036674860866 507.4168929014966L862.4338272946483 507.4168929014966ZM1021.2206694152767 403.33526414981014L1044.8884689816323 416.997395156976L1044.8884689816323 506.3964847764801L1025.1038892243673 506.3964847764801L1025.1038892243673 421.0790276570421L977.938358112492 421.0790276570421L977.938358112492 506.3964847764801L958.153778355227 506.3964847764801L958.153778355227 403.33526414981014L973.0630748485241 403.33526414981014L977.938358112492 411.6969418409179L992.4508292238382 403.33526414981014L1021.2206694152767 403.33526414981014ZM1077.5415289821617 416.997395156976L1101.209328548517 403.33526414981014L1132.0199849899886 403.33526414981014L1146.532456101335 411.6969418409179L1146.532456101335 357.4168985240661L1166.3170358586003 357.4168985240661L1166.3170358586003 507.4168929014966L1151.4077393653029 507.4168929014966L1146.532456101335 499.0552152103889L1132.0199849899886 507.4168929014966L1101.209328548517 507.4168929014966L1077.5415289821617 493.7547618943308L1077.5415289821617 416.997395156976ZM1097.3261087394267 489.67312939426466L1146.532456101335 489.67312939426466L1146.532456101335 421.0790276570421L1097.3261087394267 421.0790276570421L1097.3261087394267 489.67312939426466ZM1285.7047864855344 416.997395156976L1285.7047864855344 493.7547618943308L1262.036986919179 507.4168929014966L1222.6378954254847 507.4168929014966L1198.9700958591293 493.7547618943308L1198.9700958591293 416.997395156976L1222.6378954254847 403.33526414981014L1262.036986919179 403.33526414981014L1285.7047864855344 416.997395156976ZM1265.9202067282695 421.0790276570421L1218.7546756163943 421.0790276570421L1218.7546756163943 489.67312939426466L1265.9202067282695 489.67312939426466L1265.9202067282695 421.0790276570421ZM1394.264873119238 398.4316362157029L1393.8680477372873 398.4316362157029L1393.8680477372873 506.3964847764801L1373.4598852369563 506.3964847764801L1373.4598852369563 363.53934727416527L1392.0256441782299 363.53934727416527L1465.9201992315102 471.5041958349425L1466.3170246134614 471.5041958349425L1466.3170246134614 363.53934727416527L1486.725187113792 363.53934727416527L1486.725187113792 506.3964847764801L1468.1594281725188 506.3964847764801L1394.264873119238 398.4316362157029ZM1594.6900356745691 442.11077290043846L1543.8680421147178 442.11077290043846L1543.8680421147178 506.3964847764801L1523.4598796143873 506.3964847764801L1523.4598796143873 363.53934727416527L1606.9349331747676 363.53934727416527L1606.9349331747676 381.9066935244629L1543.8680421147178 381.9066935244629L1543.8680421147178 423.7434266501408L1594.6900356745691 423.7434266501408L1594.6900356745691 442.11077290043846ZM1704.6957004853793 506.3964847764801L1631.4247281751645 506.3964847764801L1631.4247281751645 363.53934727416527L1651.832890675495 363.53934727416527L1651.832890675495 488.02913852618246L1704.6957004853793 488.02913852618246L1704.6957004853793 506.3964847764801Z" fill="#3D" transform="matrix(0.5132881278067329,0,0,0.5132881278067328,0,78.04557287743872)"/></g></svg>